<svg xmlns="http://www.w3.org/2000/svg" width="52" height="52" viewBox="0 0 52 52" role="img"><rect width="52" height="52" rx="10" fill="#ECE8DF"/><rect width="52" height="52" rx="10" fill="none" stroke="rgba(20, 21, 46, 0.08)" stroke-width="1"/><svg x="14" y="14" width="24" height="24" viewBox="0 0 24 24" fill="none" stroke="#262696" stroke-width="2" stroke-linecap="round" stroke-linejoin="round"><path d="m2 7 4.41-4.41A2 2 0 0 1 7.83 2h8.34a2 2 0 0 1 1.42.59L22 7"/><path d="M4 12v8a2 2 0 0 0 2 2h12a2 2 0 0 0 2-2v-8"/><path d="M10 12v4"/><path d="M14 12v4"/><path d="M2 7h20"/></svg></svg>